<svg width="16" height="16" viewBox="0 0 16 16" fill="none" xmlns="http://www.w3.org/2000/svg">
<path fill-rule="evenodd" clip-rule="evenodd" d="M3.84583 0L12.1542 0C13.4915 0 13.9764 0.139238 14.4653 0.400699C14.9542 0.66216 15.3378 1.04584 15.5993 1.53473C15.8608 2.02362 16 2.50855 16 3.84583V12.1542C16 13.4915 15.8608 13.9764 15.5993 14.4653C15.3378 14.9542 14.9542 15.3378 14.4653 15.5993C13.9764 15.8608 13.4915 16 12.1542 16H3.84583C2.50855 16 2.02362 15.8608 1.53473 15.5993C1.04584 15.3378 0.66216 14.9542 0.400699 14.4653C0.139238 13.9764 0 13.4915 0 12.1542L0 3.84583C0 2.50855 0.139238 2.02362 0.400699 1.53473C0.66216 1.04584 1.04584 0.66216 1.53473 0.400699C2.02362 0.139238 2.50855 0 3.84583 0Z" fill="#DC0234"/>
<path d="M8.95721 7.79395C8.58317 7.79358 8.2174 7.90403 7.90609 8.11137C7.59477 8.31871 7.35187 8.61364 7.20804 8.95893C7.06421 9.30421 7.0259 9.68436 7.09795 10.0514C7.17 10.4184 7.34919 10.7559 7.61288 11.0212C7.87657 11.2865 8.21294 11.4677 8.57954 11.5419C8.94614 11.6162 9.32652 11.5802 9.67266 11.4384C10.0188 11.2967 10.3152 11.0555 10.5244 10.7455C10.7336 10.4354 10.8463 10.0703 10.8481 9.69629C10.8482 9.19373 10.6493 8.71158 10.295 8.35515C9.94071 7.99872 9.45977 7.79696 8.95721 7.79395V7.79395ZM8.95721 10.8377C8.87526 10.837 8.79362 10.8274 8.71371 10.8092C8.97183 10.7572 9.20404 10.6176 9.37101 10.414C9.53799 10.2105 9.62944 9.95543 9.62989 9.69214C9.63034 9.42885 9.53975 9.1735 9.37347 8.96936C9.20719 8.76522 8.97545 8.62484 8.71752 8.57201C8.79749 8.55442 8.87913 8.54549 8.96102 8.54537C9.26576 8.54537 9.55801 8.66643 9.77349 8.88191C9.98898 9.09739 10.11 9.38965 10.11 9.69439C10.11 9.99913 9.98898 10.2914 9.77349 10.5069C9.55801 10.7223 9.26576 10.8434 8.96102 10.8434L8.95721 10.8377Z" fill="url(#paint0_linear)"/>
<path d="M12.499 4.44388C12.3015 4.42492 12.1086 4.37283 11.9283 4.28979C11.6322 4.14789 11.3943 3.90795 11.2549 3.61065C11.1674 3.42798 11.0301 3.27373 10.8588 3.16569C10.6875 3.05765 10.4892 3.00021 10.2866 3H7.16106C6.98877 3.00126 6.81927 3.0437 6.66672 3.12378C6.51416 3.20387 6.38297 3.31927 6.28408 3.46037L5.96639 3.90361C5.76563 4.19307 5.49287 4.42518 5.17502 4.57704L5.00571 4.10907C4.94103 3.93025 4.39505 3.96259 3.7825 4.18136C3.16994 4.40013 2.7286 4.72543 2.79328 4.90615L2.96639 5.38744C2.67818 5.52415 2.4345 5.73959 2.26351 6.00888C2.09251 6.27817 2.00116 6.59033 2 6.90932V11.2029C1.99975 11.4253 2.04337 11.6456 2.12837 11.8511C2.21337 12.0567 2.33807 12.2434 2.49534 12.4007C2.6526 12.5579 2.83935 12.6826 3.04488 12.7676C3.2504 12.8526 3.47068 12.8963 3.69309 12.896C3.9336 12.9084 4.16935 12.8258 4.3494 12.6658C4.44504 12.5699 4.55945 12.4947 4.68546 12.4449C4.81148 12.3952 4.9464 12.3719 5.0818 12.3767H5.90361C6.28537 12.8136 6.75618 13.1638 7.28445 13.4037C7.81271 13.6436 8.38619 13.7678 8.96639 13.7678C9.54659 13.7678 10.1201 13.6436 10.6483 13.4037C11.1766 13.1638 11.6474 12.8136 12.0292 12.3767H12.3526C12.5691 12.3769 12.7836 12.3344 12.9837 12.2516C13.1839 12.1688 13.3657 12.0473 13.5187 11.894C13.6718 11.7408 13.7931 11.5589 13.8756 11.3587C13.9582 11.1584 14.0005 10.9439 14 10.7273V6.0856C13.9976 5.67464 13.8428 5.27919 13.5655 4.97588C13.2882 4.67257 12.9081 4.48299 12.499 4.44388ZM4.33228 10.9727C4.32452 11.0969 4.26974 11.2134 4.17908 11.2986C4.08842 11.3837 3.96871 11.4312 3.84432 11.4312C3.71994 11.4312 3.60023 11.3837 3.50957 11.2986C3.41891 11.2134 3.36413 11.0969 3.35637 10.9727V8.01839C3.35221 7.95175 3.36174 7.88496 3.38438 7.82214C3.40702 7.75933 3.44229 7.70181 3.488 7.65315C3.53372 7.60448 3.58893 7.5657 3.65021 7.53919C3.71149 7.51268 3.77755 7.499 3.84432 7.499C3.9111 7.499 3.97716 7.51268 4.03844 7.53919C4.09972 7.5657 4.15493 7.60448 4.20065 7.65315C4.24636 7.70181 4.28163 7.75933 4.30427 7.82214C4.32691 7.88496 4.33644 7.95175 4.33228 8.01839V10.9727ZM6.66563 6.88269H5.10082C4.97116 6.88269 4.8468 6.83118 4.75512 6.73949C4.66343 6.6478 4.61192 6.52345 4.61192 6.39378C4.61192 6.26412 4.66343 6.13976 4.75512 6.04808C4.8468 5.95639 4.97116 5.90488 5.10082 5.90488H6.66563C6.7953 5.90488 6.91965 5.95639 7.01134 6.04808C7.10303 6.13976 7.15454 6.26412 7.15454 6.39378C7.15454 6.52345 7.10303 6.6478 7.01134 6.73949C6.91965 6.83118 6.7953 6.88269 6.66563 6.88269ZM9.31071 12.3767C8.76425 12.4486 8.20884 12.3523 7.71854 12.1005C7.22823 11.8487 6.82632 11.4534 6.5664 10.9674C6.30647 10.4814 6.20088 9.92763 6.2637 9.38004C6.32652 8.83245 6.55477 8.31703 6.91801 7.90248C7.28126 7.48793 7.76224 7.19396 8.29682 7.05975C8.83141 6.92555 9.39421 6.95749 9.91018 7.15132C10.4262 7.34515 10.8708 7.69165 11.1848 8.14464C11.4988 8.59763 11.6673 9.13557 11.6677 9.68674C11.6728 10.3461 11.4355 10.9843 11.001 11.4802C10.5665 11.976 9.96498 12.2951 9.31071 12.3767ZM12.3126 6.9759C12.197 6.9759 12.084 6.9416 11.988 6.87734C11.8919 6.81309 11.817 6.72176 11.7729 6.61493C11.7287 6.50811 11.7173 6.39058 11.74 6.27724C11.7626 6.1639 11.8185 6.05984 11.9003 5.97824C11.9822 5.89664 12.0864 5.84117 12.1998 5.81885C12.3133 5.79653 12.4307 5.80837 12.5374 5.85287C12.6441 5.89736 12.7352 5.97251 12.7991 6.0688C12.8631 6.16509 12.897 6.2782 12.8966 6.39378C12.8966 6.47039 12.8815 6.54624 12.8521 6.61699C12.8228 6.68774 12.7797 6.752 12.7255 6.80608C12.6712 6.86016 12.6068 6.903 12.536 6.93214C12.4651 6.96128 12.3892 6.97615 12.3126 6.9759Z" fill="url(#paint1_linear)"/>
<defs>
<linearGradient id="paint0_linear" x1="10.9226" y1="8.48225" x2="5.38771" y2="10.327" gradientUnits="userSpaceOnUse">
<stop stop-color="white"/>
<stop offset="1" stop-color="white"/>
</linearGradient>
<linearGradient id="paint1_linear" x1="14.2361" y1="4.95777" x2="-2.89443" y2="11.3205" gradientUnits="userSpaceOnUse">
<stop stop-color="white"/>
<stop offset="1" stop-color="white"/>
</linearGradient>
</defs>
</svg>
